<svg t="1600670113130" class="icon" viewBox="0 0 1024 1024" version="1.1" xmlns="http://www.w3.org/2000/svg" p-id="11723" width="20" height="20"><path d="M565.8624 840.448c-14.0288 14.848-33.4848 23.04-53.6576 22.7328-20.8896 0-39.2704-7.5776-54.272-22.7328a74.24 74.24 0 0 1-22.784-55.296c0-21.1968 7.424-40.0896 22.8352-55.1936 14.9504-15.8208 33.28-23.3984 54.2208-23.3984 20.8384 0 38.7584 7.5776 53.6576 23.3984 15.5136 15.104 22.8864 33.9968 22.8864 55.1936 0 21.76-7.3728 39.9872-22.8864 55.296zM457.0624 319.3344c14.336-15.6672 32.8704-23.8592 55.1424-23.8592 22.3744 0 40.8064 7.5776 55.1936 23.8592 13.9776 15.6672 21.3504 35.4816 21.3504 59.2896 0 20.2752-29.8496 170.8032-40.192 280.32h-72.192C467.968 549.376 435.2 398.848 435.2 378.624c0-23.296 7.4752-43.1104 21.9648-59.2896h-0.1024z m545.9456 512L601.1904 116.48c-49.152-87.0912-129.28-87.0912-178.432 0L20.992 831.2832c-49.152 87.0912-8.96 158.5664 89.4464 158.5664h803.5328c97.9456 0 138.24-71.4752 88.9856-158.5664h0.0512z" p-id="11724"></path></svg>