<svg t="1602660384672" class="icon" viewBox="0 0 1024 1024" version="1.1" xmlns="http://www.w3.org/2000/svg" p-id="44655" width="20" height="20"><path d="M476.992 134.72c0 9.024 3.392 17.472 10.176 24.32a35.2 35.2 0 0 0 24.32 10.112 33.792 33.792 0 0 0 24.32-10.176 35.2 35.2 0 0 0 10.112-24.32 33.792 33.792 0 0 0-10.176-24.256 35.2 35.2 0 0 0-24.32-10.176 33.792 33.792 0 0 0-24.256 10.24 33.792 33.792 0 0 0-10.176 24.256" fill="" p-id="44656"></path><path d="M510.912 828.48a414.72 414.72 0 0 1-414.08-414.08c0-228.288 185.792-413.568 414.08-413.568a414.72 414.72 0 0 1 414.08 414.08c0 228.288-185.856 413.568-414.08 413.568z m0-757.056a344.064 344.064 0 0 0-343.488 343.488 344.064 344.064 0 0 0 343.488 343.488 344.064 344.064 0 0 0 343.488-343.488 344.064 344.064 0 0 0-343.488-343.488z" fill="" p-id="44657"></path><path d="M510.912 628.48a214.4 214.4 0 0 1-214.144-214.144A214.4 214.4 0 0 1 510.912 200.32a214.4 214.4 0 0 1 214.08 214.08A214.4 214.4 0 0 1 510.912 628.48z m0-357.056A143.68 143.68 0 0 0 367.36 414.912a143.68 143.68 0 0 0 143.488 143.552 143.68 143.68 0 0 0 143.488-143.552 143.68 143.68 0 0 0-143.488-143.488z m312.384 742.912H198.464a34.816 34.816 0 0 1-35.008-35.008c0-19.2 15.808-35.008 35.008-35.008h624.32c19.776 0 35.008 15.808 35.008 35.008 0 19.2-15.232 35.008-34.496 35.008z" fill="" p-id="44658"></path><path d="M316.544 1001.92a35.328 35.328 0 0 1-28.8-55.36l111.872-162.688a35.328 35.328 0 0 1 58.176 40.064l-111.872 162.752a36.48 36.48 0 0 1-29.376 15.232z m388.672 0a35.712 35.712 0 0 1-29.376-15.232l-111.296-162.752a35.456 35.456 0 0 1 9.088-49.152 35.456 35.456 0 0 1 49.152 9.088l111.808 162.688a35.456 35.456 0 0 1-29.376 55.36z" fill="" p-id="44659"></path></svg>