<svg t="1600394680535" class="icon" viewBox="0 0 1024 1024" version="1.1" xmlns="http://www.w3.org/2000/svg" p-id="20709" width="20" height="20"><path d="M157.904896 924.83584H472.928256c10.24 0 27.52512 7.20896 27.52512 32.1536 0 21.7088-17.32608 32.19456-27.52512 32.19456H158.519296a114.688 114.688 0 0 1-83.43552-35.10272A121.77408 121.77408 0 0 1 40.964096 868.1472c0-177.7664 106.7008-334.31552 265.8304-398.25408l17.2032-7.20896-17.28512-10.52672C247.975936 402.2272 213.446656 331.07968 213.446656 252.7232 213.405696 113.8688 323.956736 0 451.792896 0c138.0352 0 248.58624 113.8688 248.58624 252.7232 0 78.35648-34.4064 149.46304-93.30688 199.39328l-14.00832 10.56768c-30.72 28.34432-89.57952 39.44448-131.072 42.8032h-37.6832c-179.56864 17.73568-321.45408 173.8752-321.45408 362.65984-0.2048 15.07328 5.5296 29.61408 15.85152 40.30464 10.36288 10.6496 24.49408 16.5888 39.15776 16.384zM275.050496 252.7232v0.08192c0.65536 103.95648 82.3296 188.08832 183.296 188.74368 101.00736-0.6144 182.76352-84.7872 183.41888-188.8256-0.65536-104.0384-82.37056-188.2112-183.41888-188.86656-100.9664 0.69632-182.6816 84.86912-183.296 188.86656z m503.07072 293.15072c50.54464 48.20992 65.41312 117.63712 44.6464 178.33984a37.60128 37.60128 0 0 1 3.35872 2.8672l133.12 127.13984c31.744 30.3104 31.744 79.4624 0 109.7728l-2.58048 2.4576c-31.744 30.3104-83.27168 30.3104-115.01568 0l-133.20192-127.13984a36.98688 36.98688 0 0 1-2.99008-3.19488c-63.61088 19.82464-136.27392 5.65248-186.81856-42.5984-50.62656-48.41472-65.536-117.9648-44.52352-178.74944 1.14688-3.39968 2.4576-6.71744 3.85024-10.0352 3.6864-8.76544 15.5648-11.0592 22.528-4.38272l7.9872 7.5776 79.62624 76.06272a15.11424 15.11424 0 0 0 20.72576 0l54.4768-52.0192a13.5168 13.5168 0 0 0 0-19.78368l-79.62624-75.9808-7.94624-7.61856a12.9024 12.9024 0 0 1 4.58752-21.54496 172.032 172.032 0 0 1 10.52672-3.6864c63.73376-19.98848 136.6016-5.81632 187.26912 42.51648z m6.71744 180.46976c19.456-49.47968 8.92928-102.27712-30.02368-144.67072-32.60416-35.4304-73.27744-58.1632-120.50432-48.16896 30.84288 27.8528 52.71552 49.23392 65.7408 64.14336 16.30208 15.48288 7.70048 48.45568-8.6016 63.93856l-51.77344 49.23392c-16.34304 15.48288-47.22688 23.9616-63.52896 8.43776l-73.3184-67.91168c-8.06912 38.42048 13.39392 81.63328 50.176 116.57216 41.86112 39.81312 100.352 47.104 152.3712 28.54912l0.6144-0.24576c7.90528-2.78528 19.90656 11.18208 30.26944 19.16928 2.048 1.55648 4.83328 3.15392 6.7584 4.99712l1.76128 1.6384 116.85888 107.27424c19.29216 18.35008 45.38368 22.3232 64.67584 4.01408 19.2512-18.35008 19.2512-40.96 0-59.31008l-117.9648-113.13152-1.76128-1.6384c-1.92512-1.8432-4.34176-4.9152-6.18496-6.5536-7.82336-7.12704-19.29216-17.08032-15.81056-25.8048l0.24576-0.53248z" p-id="20710"></path></svg>