<?xml version="1.0" standalone="no"?><!DOCTYPE svg PUBLIC "-//W3C//DTD SVG 1.1//EN" "http://www.w3.org/Graphics/SVG/1.1/DTD/svg11.dtd"><svg t="1600239464164" class="icon" viewBox="0 0 1024 1024" version="1.1" xmlns="http://www.w3.org/2000/svg" p-id="4505" width="20" height="20" xmlns:xlink="http://www.w3.org/1999/xlink"><defs><style type="text/css"></style></defs><path d="M353.8 447.3h-196c-51.7 0-93.8-42.1-93.8-93.8v-196c0-51.7 42.1-93.8 93.8-93.8h196c51.7 0 93.8 42.1 93.8 93.8v196.1c-0.1 51.7-42.1 93.7-93.8 93.7zM353.8 946.1h-196C106 946.1 64 904 64 852.3V656.2c0-51.7 42.1-93.8 93.8-93.8h196c51.7 0 93.8 42.1 93.8 93.8v196.1c-0.1 51.7-42.1 93.8-93.8 93.8zM852.6 447.3h-196c-51.7 0-93.8-42.1-93.8-93.8v-196c0-51.7 42.1-93.8 93.8-93.8h196c51.7 0 93.8 42.1 93.8 93.8v196.1c-0.1 51.7-42.1 93.7-93.8 93.7zM754.5 959.8c-25 0-48.6-9.8-66.3-27.5L576.5 820.6c-36.6-36.6-36.6-96 0-132.6l111.7-111.7c17.7-17.7 41.3-27.5 66.3-27.5s48.6 9.8 66.3 27.5L932.5 688c36.6 36.6 36.6 96 0 132.6L820.8 932.3c-17.7 17.7-41.2 27.5-66.3 27.5z" p-id="4506"></path></svg>