<svg t="1605602651934" class="icon" viewBox="0 0 1024 1024" version="1.1" xmlns="http://www.w3.org/2000/svg" p-id="3771" width="30" height="30"><path d="M942.032019 181.329168H666.039828v58.077314c0 82.067942-67.17376 149.241702-149.241702 149.241702h-20.092152c-82.067942 0-149.241702-67.17376-149.241702-149.241702v-58.077314H82.167903c-41.483795 0-75.470519 33.986724-75.470519 75.47052v619.358063c0 41.483795 33.986724 75.470519 75.470519 75.470519h859.864116c41.483795 0 75.470519-33.986724 75.470519-75.470519V256.799688c0-41.483795-33.986724-75.470519-75.470519-75.47052zM548.785631 799.287778c0 21.891449-17.79305 39.684498-39.684499 39.684498H146.642718c-21.891449 0-39.684498-17.79305-39.684499-39.684498v-35.885982c0-15.194065 8.596642-28.988676 22.291293-35.68606l120.952753-59.176884-38.285045-53.179227v-88.565404c0-64.874658 53.079266-117.953924 117.953924-117.953924s117.953924 53.079266 117.953924 117.953924v90.464662L407.041 665.739945l120.153065 61.775869c13.194846 6.797345 21.591566 20.392034 21.591566 35.286216v36.485748z m275.99219-104.359234c0 22.091371-18.092932 40.184303-40.184303 40.184303H654.244436c-22.091371 0-40.184303-18.092932-40.184303-40.184303s18.092932-40.184303 40.184303-40.184303h130.449043c22.091371 0.099961 40.084342 18.192893 40.084342 40.184303z m86.566185-153.540024c0 22.091371-18.092932 40.184303-40.184303 40.184303h-216.915267c-22.091371 0-40.184303-18.092932-40.184303-40.184303s18.092932-40.184303 40.184303-40.184303h217.015228c21.99141 0.099961 40.084342 18.192893 40.084342 40.184303z" fill="" p-id="3772"></path><path d="M506.80203 328.271769c-60.476376 0-109.957048-49.480672-109.957048-109.957048V104.659118c0-17.79305 14.494338-32.287388 32.287388-32.287388h155.23936c17.79305 0 32.287388 14.494338 32.287388 32.287388v113.655603c0.099961 60.476376-49.380711 109.957048-109.857088 109.957048z" fill="" p-id="3773"></path></svg>