<svg t="1606359929961" class="icon" viewBox="0 0 1024 1024" version="1.1" xmlns="http://www.w3.org/2000/svg" p-id="15326" width="120" height="120"><path d="M92.16 512.4096C92.16 744.05888 279.94112 931.84 511.5904 931.84s419.4304-187.78112 419.4304-419.4304S743.23968 92.9792 511.5904 92.9792 92.16 280.76032 92.16 512.4096z" fill="#F4F4F4" p-id="15327" data-spm-anchor-id="a313x.7781069.0.i17" class="selected"></path><path d="M372.44928 296.96h279.10144C674.57024 296.96 686.08 308.4288 686.08 331.3664v361.2672c0 22.9376-11.50976 34.4064-34.52928 34.4064H372.44928C349.42976 727.04 337.92 715.5712 337.92 692.6336V331.3664c0-22.9376 11.50976-34.4064 34.52928-34.4064z" fill="#FFFFFF" p-id="15328"></path><path d="M296.96 665.6h329.59488v20.7872c0 12.83072 4.74112 25.20064 13.34272 34.816L645.12 727.04l-312.76032-0.13312c-19.54816-0.03072-35.3792-15.69792-35.39968-35.03104V665.6z" fill="#DBDBDB" p-id="15329"></path><path d="M553.13408 358.4h71.33184c6.94272 0 10.41408 3.40992 10.41408 10.24 0 6.81984-3.47136 10.24-10.41408 10.24h-71.33184C546.19136 378.88 542.72 375.45984 542.72 368.64c0-6.83008 3.47136-10.24 10.41408-10.24zM389.0176 501.76h245.9648c6.7584 0 10.1376 3.40992 10.1376 10.24 0 6.81984-3.3792 10.24-10.1376 10.24H389.0176c-6.7584 0-10.1376-3.42016-10.1376-10.24 0-6.83008 3.3792-10.24 10.1376-10.24zM389.0176 573.44h245.9648c6.7584 0 10.1376 3.40992 10.1376 10.24s-3.3792 10.24-10.1376 10.24H389.0176c-6.7584 0-10.1376-3.40992-10.1376-10.24s3.3792-10.24 10.1376-10.24z" fill="#EDEDED" p-id="15330"></path><path d="M725.11488 618.97728c3.11296 2.84672 6.57408 5.89824 9.9328 9.07264 12.14464 11.52 24.2688 23.0912 36.37248 34.6624 8.72448 8.31488 9.1136 20.0704 0.96256 27.904-8.22272 7.936-20.66432 7.55712-29.53216-0.90112-14.67392-13.96736-29.3888-27.93472-44.00128-41.99424-1.81248-1.7408-2.9696-1.86368-5.28384-0.6656-52.224 27.42272-115.26144 0.3072-128.32768-55.12192-10.56768-44.8512 20.992-90.0096 69.18144-98.9184 49.6128-9.15456 97.59744 24.71936 102.93248 72.5504a79.1552 79.1552 0 0 1-11.07968 50.51392c-0.3072 0.53248-0.6144 1.024-0.88064 1.56672-0.1024 0.2048-0.1024 0.45056-0.27648 1.3312z m-74.68032 13.34272c33.81248-0.24576 60.80512-25.97888 60.65152-57.84576-0.1536-31.8464-27.648-57.58976-61.19424-57.344-33.1776 0.27648-59.87328 26.4192-59.6992 58.40896 0.17408 30.99648 27.79136 57.01632 60.23168 56.7808h0.01024z" fill="#A7A7A7" p-id="15331" data-spm-anchor-id="a313x.7781069.0.i19" class="selected"></path><path d="M604.16 583.66976c0.0512-30.50496 26.12224-52.25472 50.9952-51.1488 0.06144 1.16736 0.18432 2.37568 0.18432 3.56352 0.03072 3.52256 0.01024 7.04512 0.01024 10.52672-23.84896 2.08896-35.77856 18.3808-36.90496 37.0688H604.16v-0.01024z" fill="#FFFFFF" p-id="15332"></path></svg>