<svg t="1606273147370" class="icon" viewBox="0 0 1024 1024" version="1.1" xmlns="http://www.w3.org/2000/svg" p-id="11865" width="30" height="30"><path d="M934.86 61.99c6.07 0 11.26 5.2 11.26 11.26v207.67c0 6.07-5.2 11.26-11.26 11.26H91.06c-6.07 0-11.26-5.2-11.26-11.26V73.25c0-6.07 5.2-11.26 11.26-11.26h843.8m0-61.88H91.06c-40.22 0-73.14 32.92-73.14 73.14v207.67c0 40.22 32.92 73.14 73.14 73.14h843.8c40.22 0 73.14-32.92 73.14-73.14V73.25C1008 33.03 975.08 0.11 934.86 0.11z m0 0" fill="" p-id="11866"></path><path d="M238.83 143.92h-74.26v74.26h74.26v-74.26z m127.47 0h-74.26v74.26h74.26v-74.26z m510.51 0H610.73v74.26h266.09v-74.26z m58.05 252.22c6.07 0 11.26 5.2 11.26 11.26v207.67c0 6.07-5.2 11.26-11.26 11.26H91.06c-6.07 0-11.26-5.2-11.26-11.26V407.41c0-6.07 5.2-11.26 11.26-11.26h843.8m0-61.89H91.06c-40.22 0-73.14 32.92-73.14 73.14v207.67c0 40.22 32.92 73.14 73.14 73.14h843.8c40.22 0 73.14-32.92 73.14-73.14V407.41c0-40.23-32.92-73.15-73.14-73.15z m0 0" fill="" p-id="11867"></path><path d="M238.83 478.07h-74.26v74.26h74.26v-74.26z m127.47 0h-74.26v74.26h74.26v-74.26z m510.51 0H610.73v74.26h266.09v-74.26z m58.05 252.23c6.07 0 11.26 5.2 11.26 11.26v207.67c0 6.07-5.2 11.26-11.26 11.26H91.06c-6.07 0-11.26-5.2-11.26-11.26V741.56c0-6.07 5.2-11.26 11.26-11.26h843.8m0-61.88H91.06c-40.22 0-73.14 32.92-73.14 73.14v207.67c0 40.22 32.92 73.14 73.14 73.14h843.8c40.22 0 73.14-32.92 73.14-73.14V741.56c0-40.22-32.92-73.14-73.14-73.14z m0 0" fill="" p-id="11868"></path><path d="M238.83 812.23h-74.26v74.26h74.26v-74.26z m127.47 0h-74.26v74.26h74.26v-74.26z m510.51 0H610.73v74.26h266.09v-74.26z m0 0" fill="" p-id="11869"></path></svg>