<svg t="1600334946592" class="icon" viewBox="0 0 1024 1024" version="1.1" xmlns="http://www.w3.org/2000/svg" p-id="4232" width="20" height="20"><path d="M462.55648 0A512.768 512.768 0 0 0 0.66848 510.72a525.312 525.312 0 0 0 46.272 212.928l416-238.72V0zM100.70048 813.632a511.04 511.04 0 0 0 826.432 0l-413.248-238.72-413.248 238.72z m528.64-726.4A42.624 42.624 0 0 0 619.10048 7.68L572.82848 0h-7.68v51.2a43.456 43.456 0 0 0 64 35.84z m0 208l200.128-115.2a42.176 42.176 0 0 0 5.12-69.312 77.824 77.824 0 0 0-17.92-12.8 43.008 43.008 0 0 0-46.272-2.56L585.69248 202.816a40.896 40.896 0 0 0-20.48 35.84v20.48a41.792 41.792 0 0 0 64 36.032zM585.62848 497.92l7.68 5.12a39.296 39.296 0 0 0 40.96 0l313.024-179.648a39.296 39.296 0 0 0 15.36-56.512c-2.56-5.12-7.68-12.8-10.24-17.92a42.624 42.624 0 0 0-56.512-15.36L585.30848 413.248a40.896 40.896 0 0 0-20.48 35.84v12.8a44.8 44.8 0 0 0 20.672 36.032z m351.552 128.384a41.152 41.152 0 0 0 0 71.872l38.4 23.04 2.56 2.56c0-2.56 2.56-2.56 2.56-5.12 5.12-12.8 12.8-28.16 17.92-40.96a43.392 43.392 0 0 0-61.504-51.2z m84.672-190.016a42.368 42.368 0 0 0-64-30.72L755.29248 523.52a41.152 41.152 0 0 0 0 71.872l17.92 10.24a39.296 39.296 0 0 0 40.96 0l187.328-107.776a41.6 41.6 0 0 0 20.48-40.96c2.752-5.12 0-12.8 0-20.672z m0 0" p-id="4233"></path></svg>