<svg t="1600335853429" class="icon" viewBox="0 0 1024 1024" version="1.1" xmlns="http://www.w3.org/2000/svg" p-id="7839" width="20" height="20"><path d="M686.92154159 437.34065694H271.62568039a24.86399147 24.86399147 0 1 0 0 49.72798293h415.26226153a24.86399147 24.86399147 0 0 0 0.03359967-49.72798293z" p-id="7840"></path><path d="M511.76480033 921.0796955H176.60491156a61.823979 61.823979 0 0 1-61.85757867-61.85757966V240.41112256a61.823979 61.823979 0 0 1 61.85757867-61.85757965h95.59196817v123.74875898h424.70385891l0.67199934-123.74875898h97.80956719c34.17118819 0 61.89117933 27.68639048 61.89117933 61.85757965v338.65428713c18.11039442 9.40799672 34.87678819 20.76479311 50.13118392 34.03678851V248.77751961a120.3887603 120.3887603 0 0 0-120.42235997-120.35515964h-90.31677047V68.17758031h-81.11037276C589.48157375 32.29279212 541.50079048 8 485.89280886 8s-103.58876587 24.35999147-129.66235734 60.17758031h-80.97597211v60.24477966H184.93770894a120.3887603 120.3887603 0 0 0-120.42235997 120.42235997v602.01099886a120.3887603 120.3887603 0 0 0 120.42235997 120.42235997h360.2590799a255.52791436 255.52791436 0 0 1-33.43198851-50.19838327zM325.92326202 125.33116062h71.16477637c0-36.11998786 39.8159872-65.38557867 88.93917014-65.38557768s88.93917014 29.26558983 88.93917014 65.38557769h71.16477638v130.83835668h-320.20789303V125.33116062z" p-id="7841"></path><path d="M736.88472519 1015.99966433a222.86872617 222.86872617 0 0 1-222.59992585-222.59992585 222.09592584 222.09592584 0 0 1 136.81915439-205.46393175 15.85919475 15.85919475 0 1 1 12.23039574 29.33279016 190.37753634 190.37753634 0 0 0-117.26396128 176.13114159 190.98233634 190.98233634 0 0 0 190.78073733 190.78073635 190.37753634 190.37753634 0 0 0 176.1311406-117.26396128 15.89279442 15.89279442 0 0 1 29.33279016 12.19679606A221.99512584 221.99512584 0 0 1 736.88472519 1015.99966433z m0 0" p-id="7842"></path><path d="M943.55825595 809.32613258h-206.67353076a15.89279442 15.89279442 0 0 1-15.89279442-15.89279442v-206.67353077c0-8.76959705 7.12319738-15.89279442 15.89279442-15.89279541a222.90232584 222.90232584 0 0 1 222.59992584 222.59992585 15.95999475 15.95999475 0 0 1-15.92639508 15.85919475z m-190.78073634-31.8191895h174.21594159a191.08313634 191.08313634 0 0 0-174.21594159-174.2159416v174.2159416z m0 0M599.49437047 583.83660837H271.62568039a24.86399147 24.86399147 0 1 0 0 49.72798294h274.51190813c15.62399508-18.78239377 33.02878852-36.05278753 53.35678195-49.72798293zM497.95520427 731.64295883H271.62568039a24.86399147 24.86399147 0 1 0 0 49.72798294h216.71992716a253.343916 253.343916 0 0 1 9.60959672-49.72798294z" p-id="7843"></path></svg>