<svg t="1600394519445" class="icon" viewBox="0 0 1024 1024" version="1.1" xmlns="http://www.w3.org/2000/svg" p-id="20222" width="20" height="20"><path d="M290.816 1024H107.861333A107.861333 107.861333 0 0 1 0 916.138667V107.861333A107.861333 107.861333 0 0 1 107.861333 0h808.277334A107.861333 107.861333 0 0 1 1024 107.861333V327.68a34.133333 34.133333 0 1 1-68.266667 0V107.861333a39.594667 39.594667 0 0 0-39.594666-39.594666H107.861333a39.594667 39.594667 0 0 0-39.594666 39.594666v808.277334a39.594667 39.594667 0 0 0 39.594666 39.594666h182.954667a34.133333 34.133333 0 0 1 0 68.266667z" p-id="20223"></path><path d="M698.368 303.104H187.733333a34.133333 34.133333 0 0 1-34.133333-34.133333 34.133333 34.133333 0 0 1 34.133333-34.133334h510.634667a34.133333 34.133333 0 0 1 34.133333 34.133334 34.133333 34.133333 0 0 1-34.133333 34.133333zM473.088 505.856H187.733333a34.133333 34.133333 0 0 1 0-68.266667h285.354667a34.133333 34.133333 0 0 1 0 68.266667zM503.125333 1009.664a94.890667 94.890667 0 0 1-68.266666-28.672l-33.450667-33.450667a95.573333 95.573333 0 0 1-28.672-68.266666 94.208 94.208 0 0 1 28.672-68.266667l174.762667-175.445333a226.645333 226.645333 0 0 1 301.056-262.826667 49.152 49.152 0 0 1 31.402666 36.864 47.786667 47.786667 0 0 1-13.653333 45.056l-52.565333 52.565333 32.085333 32.768 52.565333-52.565333a49.152 49.152 0 0 1 45.738667-13.653333 48.469333 48.469333 0 0 1 36.181333 31.402666 225.962667 225.962667 0 0 1-262.144 300.373334l-175.445333 175.445333a94.890667 94.890667 0 0 1-68.266667 28.672z m294.229334-582.997333a157.696 157.696 0 0 0-114.688 45.738666 159.744 159.744 0 0 0-40.96 154.965334 47.104 47.104 0 0 1-12.288 48.469333l-180.224 182.954667a28.672 28.672 0 0 0-8.192 20.48 27.306667 27.306667 0 0 0 8.192 19.797333l33.450666 34.133333a28.672 28.672 0 0 0 40.277334 0L706.56 750.933333a49.834667 49.834667 0 0 1 48.469333-12.288 157.696 157.696 0 0 0 154.282667-40.277333 158.378667 158.378667 0 0 0 43.690667-136.533333l-43.008 43.008a49.834667 49.834667 0 0 1-68.266667 0L780.970667 546.133333a50.517333 50.517333 0 0 1 0-68.266666l43.690666-43.690667z m32.085333 68.266666z" p-id="20224"></path></svg>