<svg t="1606359074272" class="icon" viewBox="0 0 1871 1024" version="1.1" xmlns="http://www.w3.org/2000/svg" p-id="2480" data-spm-anchor-id="a313x.7781069.0.i1" width="120" height="120"><path d="M952.12266 113.177923m54.629989 0l593.125592 0q54.629989 0 54.629989 54.629989l0 0q0 54.629989-54.629989 54.629989l-593.125592 0q-54.629989 0-54.629989-54.629989l0 0q0-54.629989 54.629989-54.629989Z" fill="#FFFFFF" opacity=".5" p-id="2481"></path><path d="M1380.41787 331.697878h-201.947558A54.692423 54.692423 0 0 0 1233.076888 277.067889a54.688521 54.688521 0 0 0-54.629989-54.629988h201.978775A54.88753 54.88753 0 0 0 1326.728297 277.067889a54.879726 54.879726 0 0 0 53.685671 54.629989z" fill="#FFFFFF" opacity=".5" p-id="2482"></path><path d="M1104.3062 331.697878m54.629989 0l593.125592 0q54.629989 0 54.629989 54.629989l0 0q0 54.629989-54.629989 54.629988l-593.125592 0q-54.629989 0-54.629989-54.629988l0 0q0-54.629989 54.629989-54.629989Z" fill="#FFFFFF" opacity=".5" p-id="2483"></path><path d="M0 526.804981m54.629989 0l593.125591 0q54.629989 0 54.629989 54.629988l0 0q0 54.629989-54.629989 54.629989l-593.125591 0q-54.629989 0-54.629989-54.629989l0 0q0-54.629989 54.629989-54.629988Z" fill="#FFFFFF" opacity=".5" p-id="2484"></path><path d="M443.903778 745.324935h-201.947558A54.692423 54.692423 0 0 0 296.562796 690.694947a54.688521 54.688521 0 0 0-54.629989-54.629989h201.978775A54.88753 54.88753 0 0 0 390.214205 690.694947a54.879726 54.879726 0 0 0 53.68567 54.629988z" fill="#FFFFFF" opacity=".5" p-id="2485"></path><path d="M167.792108 745.324935m54.629989 0l593.125592 0q54.629989 0 54.629988 54.629989l0 0q0 54.629989-54.629988 54.629989l-593.125592 0q-54.629989 0-54.629989-54.629989l0 0q0-54.629989 54.629989-54.629989Z" fill="#FFFFFF" opacity=".5" p-id="2486"></path><path d="M1078.942277 770.688859m-181.449605 0a181.449605 181.449605 0 1 0 362.899211 0 181.449605 181.449605 0 1 0-362.899211 0Z" fill="#FFFFFF" p-id="2487"></path><path d="M1077.283867 542.038943a223.202525 223.202525 0 1 0 223.202525 223.202525 221.813363 221.813363 0 0 0-223.202525-223.202525z m0 382.605028a159.418111 159.418111 0 1 1 159.418111-159.43372 157.868961 157.868961 0 0 1-159.418111 159.43372zM857.285 286.971526c15.94025 0 28.696353-12.7522 28.696353-31.884403s-12.7522-31.884403-28.696353-31.884403h-181.734462c-15.94025 0-28.696353 12.7522-28.696352 31.884403s12.7522 31.884403 28.696352 31.884403z m-178.550314 191.302514h366.660876c19.120496 0 31.884403-12.7522 31.884403-31.884403s-12.7522-31.884403-31.884403-31.884403H678.738588c-19.120496 0-31.884403 12.7522-31.884402 31.884403s12.7522 31.880501 31.884402 31.880501z" fill="#DFDFDF" p-id="2488" data-spm-anchor-id="a313x.7781069.0.i0" class=""></path><path d="M822.212547 892.759569h-223.202525c-19.120496 0-31.884403-12.7522-31.884403-31.884403v-765.210056c0-19.120496 12.7522-31.884403 31.884403-31.884403h510.154345a93.94407 93.94407 0 0 1 95.649306 95.649306V503.782342c0 19.120496 12.7522 31.884403 31.884403 31.884403S1268.586381 522.902839 1268.586381 503.782342V159.433915A157.868961 157.868961 0 0 0 1109.164367 0.015804H599.025631A93.94407 93.94407 0 0 0 503.376325 95.66511v765.210056a93.94407 93.94407 0 0 0 95.649306 95.649306h223.202525c19.120496 0 31.884403-12.7522 31.884403-31.884403a31.950739 31.950739 0 0 0-31.900012-31.8805z" fill="#DFDFDF" p-id="2489"></path><path d="M1156.98902 749.281707H1093.224117v-31.884402c0-19.120496-12.7522-31.884403-31.884403-31.884403s-31.884403 12.7522-31.884402 31.884403v63.768805c0 19.120496 12.7522 31.884403 31.884402 31.884403h95.649306c19.120496 0 31.884403-12.7522 31.884403-31.884403s-12.7522-31.884403-31.884403-31.884403z" fill="#DFDFDF" p-id="2490"></path></svg>