<svg t="1600335602160" class="icon" viewBox="0 0 1024 1024" version="1.1" xmlns="http://www.w3.org/2000/svg" p-id="5982" width="20" height="20"><path d="M531 959.4H63.9v-56h406.3c17.6 21.4 38.1 40 60.8 56z m-97.4-111.9H175.8V534.1c0-166.6 135.5-302.1 302.1-302.1 122 0 227.7 70.3 279.5 172.3-16.3-2.7-32.9-4.4-50-4.4-5.7 0-11.2 0.6-16.8 0.8-46.4-68-124.4-112.8-212.7-112.8-135.7 0-246.1 110.4-246.1 246.1v257.5h111.9V511.7h56v279.8h11.9c5.5 19.5 12.9 38.2 22 56zM511.5 176h-56V64.1h56V176z m-254.1 65.5l-79.1-79.1 39.6-39.6L297 202l-39.6 39.5z m408.1 0L626 202l79.1-79.1 39.6 39.6-79.2 79z m0 0" p-id="5983"></path><path d="M932.8 676.6H721.9V465.7c0-4.7-1.9-9.2-5.2-12.6-3.3-3.3-7.9-5.2-12.6-5.2-136.1 0-246.5 110.3-246.5 246.5 0 136.1 110.3 246.5 246.5 246.5 136.1 0 246.5-110.3 246.5-246.5 0-4.7-1.9-9.2-5.2-12.6-3.3-3.3-7.9-5.2-12.6-5.2zM704.1 905.3c-113.1 0.3-206.3-88.8-211.1-201.9-4.8-113 80.6-209.7 193.3-219v210c0 4.7 1.9 9.2 5.2 12.6 3.3 3.3 7.9 5.2 12.6 5.2h210c-9.3 109-100.5 192.9-210 193.1z m0 0" p-id="5984"></path><path d="M772.9 643.4h154c4.7 0 9.2-1.9 12.6-5.2 3.3-3.3 5.2-7.9 5.2-12.6-0.1-94.8-77-171.7-171.8-171.8-4.7 0-9.2 1.9-12.6 5.2-3.3 3.3-5.2 7.9-5.2 12.6v154c0 4.7 1.9 9.2 5.2 12.6 3.3 3.4 7.8 5.2 12.6 5.2z m135-35.5H790.6V490.7c61.1 8.1 109.2 56.1 117.3 117.2z m0 0" p-id="5985"></path></svg>