<svg t="1605756223017" class="icon" viewBox="0 0 1024 1024" version="1.1" xmlns="http://www.w3.org/2000/svg" p-id="12645" width="30" height="30"><path d="M831.9 430.4c-14.4 0-26.6-11-27.8-25.6l-19.5-228.2c-0.1-8.4-5-13.4-11.1-13.4H247.7c-6.1 0-11 4.9-11 11l-19.6 230.6c-1.3 15.4-14.6 26.9-30.2 25.5-15.4-1.3-26.8-14.9-25.5-30.2l19.5-228.2c-0.1-34.5 29.9-64.6 66.8-64.6h525.8c36.9 0 66.9 30 66.9 66.9L859.8 400c1.3 15.4-10.1 28.9-25.5 30.2-0.8 0.2-1.6 0.2-2.4 0.2zM331.3 787.6v71.2c0 31.9-25.9 57.8-57.8 57.8h-60.6c-31.9 0-57.8-25.9-57.8-57.8v-71.2h176.2zM862 787.6v71.2c0 31.9-25.9 57.8-57.8 57.8h-60.6c-31.9 0-57.8-25.9-57.8-57.8v-71.2H862z" fill="" p-id="12646"></path><path d="M939.1 435c0-20.3-16.5-36.8-36.8-36.8H121.1c-20.3 0-36.8 16.5-36.8 36.8L65.4 725.7c0 20.3 16.5 36.8 36.8 36.8h818.9c20.3 0 36.8-16.5 36.8-36.8L939.1 435zM273.8 665.1c-40.2 0-72.9-32.6-72.9-72.9 0-40.3 32.6-72.9 72.9-72.9s72.9 32.6 72.9 72.9c0 40.3-32.7 72.9-72.9 72.9z m466.6 0c-40.2 0-72.9-32.6-72.9-72.9 0-40.3 32.6-72.9 72.9-72.9 40.3 0 72.9 32.6 72.9 72.9 0 40.3-32.6 72.9-72.9 72.9zM842.9 398c-10.5 0-20.6-5.9-25.3-16.1-6.6-14-0.5-30.6 13.4-37.2l88.6-41.6c14-6.6 30.6-0.5 37.2 13.4 6.6 14 0.5 30.6-13.4 37.2l-88.6 41.6c-3.9 1.8-7.9 2.7-11.9 2.7zM181.1 398c-4 0-8-0.8-11.9-2.6l-88.6-41.6c-14-6.6-20-23.2-13.4-37.2 6.6-14 23.3-20 37.2-13.4l88.6 41.6c14 6.6 20 23.2 13.4 37.2-4.8 10-14.8 16-25.3 16z" fill="" p-id="12647"></path></svg>