<svg t="1600325334170" class="icon" viewBox="0 0 1024 1024" version="1.1" xmlns="http://www.w3.org/2000/svg" p-id="2582" width="20" height="20"><path d="M922.73377 243.245093a216.446905 216.446905 0 0 1-20.613991 47.412179 463.814796 463.814796 0 0 1-46.89683 515.349774L723.808757 669.954706 835.639658 555.547056l-28.859588-29.890287-112.34625 114.40765-331.885254-339.100151-23.19074 23.706089L526.429794 515.349774l-109.254152 115.953699L217.21993 426.194263l-23.70609 23.706089 54.111726 55.657776-154.604932 159.75843a469.998993 469.998993 0 0 1-25.767489-154.604932 453.507801 453.507801 0 0 1 397.850026-453.507801 215.416205 215.416205 0 0 1 25.767488-44.83543 494.735783 494.735783 0 0 0-463.814796 498.343231 493.189733 493.189733 0 0 0 488.036236 498.85858 493.189733 493.189733 0 0 0 488.036235-498.85858 503.496729 503.496729 0 0 0-80.394564-267.466533z m-814.252643 463.814796l168.519376-171.096125 116.984399 119.045798-186.556618 190.679416a446.808254 446.808254 0 0 1-98.947157-137.598389zM238.86462 876.094615l318.48616-325.701057 113.8923 115.953699-281.380976 284.988425A438.562657 438.562657 0 0 1 238.86462 876.094615z m273.13538 95.339708a441.654756 441.654756 0 0 1-74.210367-6.699547l262.828384-268.497232 131.929542 135.021641a451.446402 451.446402 0 0 1-320.547559 137.598389zM503.239054 189.133367c-9.276296 5.153498-19.067942 8.245596-28.344238 12.368394a17.521892 17.521892 0 0 0-13.399094 18.037243v16.491192A17.521892 17.521892 0 0 0 474.894816 257.674887c9.276296 3.607448 19.067942 7.214897 27.828888 11.337695a45.35078 45.35078 0 0 1 19.583291 40.197282c-3.607448 11.337695-8.760946 22.16004-12.883744 32.982386a17.006543 17.006543 0 0 0 3.092099 19.583291c4.638148 4.638148 8.760946 9.276296 13.399094 13.399094a15.460493 15.460493 0 0 0 20.613991 3.607449l25.252139-11.853045a44.83543 44.83543 0 0 1 51.534977 19.583291c3.607448 9.791646 7.730247 19.067942 11.337695 28.344238a17.521892 17.521892 0 0 0 17.521892 13.399094h12.368395c14.945143 0 18.552592-3.092099 23.70609-17.006543s5.668848-16.491193 9.276295-24.221439a42.774031 42.774031 0 0 1 45.350781-20.613991 257.674887 257.674887 0 0 1 30.405636 12.883744 15.975843 15.975843 0 0 0 20.098641-4.122798 128.837443 128.837443 0 0 0 11.853045-11.853045 18.037242 18.037242 0 0 0 4.122798-23.190739 229.845999 229.845999 0 0 1-11.337695-25.767489 44.320081 44.320081 0 0 1 18.037242-48.442879 220.569703 220.569703 0 0 1 26.282839-8.245596 19.067942 19.067942 0 0 0 13.399094-19.583292 72.148968 72.148968 0 0 0 0-14.945143 18.037242 18.037242 0 0 0-13.914444-20.098641 211.808757 211.808757 0 0 1-29.374937-12.883745 42.258681 42.258681 0 0 1-17.006543-43.289381c3.092099-10.822345 8.245596-21.129341 12.368395-31.951686a15.460493 15.460493 0 0 0-3.607448-19.583291l-12.883745-13.399094a15.460493 15.460493 0 0 0-20.613991-3.607448c-7.730247 3.607448-15.975843 6.699547-23.706089 10.822345a43.289381 43.289381 0 0 1-51.534978-20.098641l-11.337695-30.405637a16.491193 16.491193 0 0 0-15.975843-11.853045h-18.037242a18.037242 18.037242 0 0 0-18.037242 13.399094c-3.607448 9.791646-6.699547 19.583291-10.822345 28.859588a42.774031 42.774031 0 0 1-43.289381 19.583291 237.060896 237.060896 0 0 1-31.436336-12.883744 15.975843 15.975843 0 0 0-20.613991 4.122798c-4.122798 4.122798-8.760946 8.245596-12.883744 12.883744a16.491193 16.491193 0 0 0-3.607449 20.613991c4.122798 8.760946 8.245596 17.521892 11.853045 26.282839a45.86613 45.86613 0 0 1-18.037242 49.473578z m154.604932-61.841973a103.069955 103.069955 0 0 1-2.576749 201.501762 98.947157 98.947157 0 0 1-96.885757-103.069955 98.947157 98.947157 0 0 1 101.523905-98.431807z m0 161.304479a60.811273 60.811273 0 0 0 0-121.107197 60.811273 60.811273 0 0 0 0 121.107197z" p-id="2583"></path></svg>