<svg t="1605856384212" class="icon" viewBox="0 0 1867 1024" version="1.1" xmlns="http://www.w3.org/2000/svg" p-id="6789" data-spm-anchor-id="a313x.7781069.0.i30" width="240" height="240"><path d="M519.98184272 86.977957c0 7.563301 3.78165 11.344951 7.563301 15.126602a11.507444 11.507444 0 0 0 15.126601 0c3.78165-3.78165 7.563301-7.563301 7.563301-15.126602s-7.563301-15.126601-15.126602-15.126601-15.126601 7.563301-15.126601 15.126601m658.066244 22.689902c-15.126601 0-22.689902-11.344951-22.689902-22.689902s11.285863-22.719446 22.689902-22.719446c15.067513 0 22.630814 11.374495 22.630813 22.719446s-7.563301 22.689902-22.630813 22.689902z m0-41.598153c-11.344951 0-18.908252 7.563301-18.908252 18.908251s7.563301 18.908252 18.908252 18.908252 18.908252-7.563301 18.908251-18.908252-7.563301-18.908252-18.908251-18.908251z m0 0" fill="#0da7db" p-id="6790"></path><path d="M1472.95772272 378.165032s-11.285863 41.598153-37.875591 45.379804c0 0 30.253203 11.344951 37.816503 41.598153 0 0 3.78165-45.379804 37.816503-45.379804 0 3.78165-37.816503-15.126601-37.816503-41.598153z m37.816503-64.258512s-3.78165 15.126601-15.126601 18.908252c0 0 11.344951 3.78165 15.126601 15.126601 0 0 0-15.126601 15.126601-15.126601 0-3.78165-15.126601-11.344951-15.126601-18.908252zM777.13406472 0s-7.563301 30.253203-26.471553 33.975765a42.484478 42.484478 0 0 1 26.471553 33.975764s3.78165-33.975765 30.253202-33.975764c0 0-30.253203-15.126601-30.253202-33.975765z" fill="#0da7db" p-id="6791"></path><path d="M805.79188272 451.700404l3.20554 6.425851s12.851702-6.425851 28.923716-12.851702l-3.20554-6.425851a118.383381 118.383381 0 0 1-28.923716 12.851702zM839.88582472 293.964224l4.431621-2.245355v-7.120138l3.20554-12.851703c3.220312-3.20554 3.220312-6.425851 6.425851-9.646162v-6.425852h-6.425851a36.265436 36.265436 0 0 0-9.646163 35.349568 2.954414 2.954414 0 0 0 2.009002 2.939642zM876.50578972 416.350837a3.146451 3.146451 0 0 0-3.220312-3.20554h-3.205539a97.643393 97.643393 0 0 1-22.497865 16.072014c-3.20554 0-3.20554 3.20554 0 6.425851 0 3.220312 3.220312 3.220312 6.425851 0 9.646163-6.425851 16.072014-9.646163 22.497865-16.057242 0-0.029544 3.146451-3.235084 0-3.235083zM900.17064872 252.454703a6.691748 6.691748 0 0 1 3.50098-1.477207c0.472706-0.42839 1.019273-0.974957 1.743105-1.698789 0-3.220312 0-3.220312-3.20554-3.220311-12.851702-3.20554-25.703405-3.20554-35.349567 3.220311a3.146451 3.146451 0 0 0-3.220311 3.20554 3.146451 3.146451 0 0 0 3.220311 3.205539c12.851702-6.425851 22.497865-6.425851 32.129256-3.205539zM905.42950572 352.077553a3.146451 3.146451 0 0 0 3.20554-3.205539c0-3.220312 0-3.220312-3.20554-3.220312-6.425851 0-16.072014-3.20554-22.497865-6.425851-3.20554 0-3.20554 0-6.425851 3.20554s0 3.20554 3.205539 6.425851c9.646163-3.20554 19.292325 0.014772 25.718177 3.220311zM919.53683372 253.828505l-0.901096-0.723831a14.240277 14.240277 0 0 1-2.230583-0.649971h-4.549798v5.524755a7.208771 7.208771 0 0 1 0.886324 1.565839c9.12914 6.617888 15.156145 19.203693 15.156146 34.684824a3.146451 3.146451 0 0 0 3.220311 3.20554h3.190768s3.20554-3.20554 3.205539-6.425851q-4.549798-23.000115-17.977611-37.181305zM863.65408772 329.59446l6.425851 6.425852h6.425851c3.20554 0 0-3.20554 0-6.425852l-22.497865-22.497865a17.371956 17.371956 0 0 1-4.771379-1.314714l-1.624928 0.812464a3.382804 3.382804 0 0 0 0 0.487478c-3.20554 0-3.20554 3.20554 0 6.425852a38.79146 38.79146 0 0 0 16.04247 16.086785zM1014.68374672 274.952568a139.90629 139.90629 0 0 1-19.277553 22.497865v6.425851h6.425851c6.425851-6.425851 12.851702-16.072014 19.277553-22.497865v-6.425851h-6.425851zM1091.80873272 233.177149l28.923716-35.349567c-3.20554 0-25.703405-12.851702-25.703405-12.851702zM1005.05235672 133.569071l64.258511 28.908944 106.048701-83.550837-80.330525 86.771149 80.330525 25.703404L1220.35529872 30.725909 1005.05235672 133.569071zM1069.31086772 181.77034s-6.425851 12.851702-12.851702 28.923717c0 3.220312 0 3.220312 3.205539 6.425851s3.220312 0 6.425851-3.20554a118.398153 118.398153 0 0 0 12.851702-28.923716c0-3.20554-3.20554-6.425851-3.205539-6.425851-3.20554-0.014772-3.20554-0.014772-6.425851 3.205539zM931.13291072 339.225851c3.20554-9.646163 3.20554-19.292325 6.425851-28.923716v-3.20554h-3.249856c-3.20554 0-3.20554 0-3.20554 3.20554 0 9.646163-3.220312 19.277553-6.425851 28.923716h-3.205539a3.146451 3.146451 0 0 0-3.220312 3.20554l3.220312 3.205539c-3.220312 3.220312-3.220312 6.425851-6.425851 9.646163 0 3.220312 0 3.220312 3.205539 6.425851s3.220312 0 6.425851-3.205539c3.20554-6.425851 6.425851-9.646163 6.425851-16.072014 3.20554 0 6.425851 0 9.646163-3.20554a3.146451 3.146451 0 0 0 3.20554-3.220311s-6.425851 3.220312-9.646163 3.220311zM1043.62223472 229.97161c-6.425851 9.646163-12.851702 22.497865-19.277553 32.129256v3.205539l3.220312 3.220312a3.146451 3.146451 0 0 0 3.205539-3.220312 282.766994 282.766994 0 0 0 19.277554-32.129256c3.20554-3.220312 3.20554-3.220312 0-6.425851-3.235084 0-6.425851 0-6.425852 3.220312zM882.93164072 400.278823c-3.20554 0-3.20554 3.220312 0 6.425851 0 3.220312 3.220312 3.220312 6.425851 0 9.646163-9.646163 16.072014-16.072014 22.497865-25.703405v-6.425851h-6.425851c-6.425851 9.646163-12.866474 16.057242-22.497865 25.703405zM985.76003072 319.948298c-3.20554 0 0-3.20554-3.205539-3.20554 0-3.20554 0-3.20554-3.220312-3.205539-9.646163 6.425851-16.072014 12.851702-25.703405 19.277553-3.20554 0-3.20554 3.20554-3.205539 6.425851s3.20554 3.20554 6.425851 3.20554l28.923716-19.277554s3.190767-3.220312-0.014772-3.220311z" fill="#0da7db" p-id="6792"></path><path d="M913.00757872 260.239585c0.147721 0.251125 0.280669 0.517023 0.413618 0.782919a6.455395 6.455395 0 0 1 1.166993 1.063589 6.869013 6.869013 0 0 1 1.477208 1.935142l8.168955-4.963416a7.06105 7.06105 0 0 1-2.053318-3.264628 6.366763 6.366763 0 0 1-1.181766-0.930641c-0.768148-0.576111-1.477207-1.13745-2.289671-1.743104a14.772072 14.772072 0 0 1-2.747605-0.842008l-4.63843 2.806694a8.228044 8.228044 0 0 1 0.605654 2.954414 7.386036 7.386036 0 0 1 1.078362 2.201039z" fill="#0da7db" p-id="6793"></path><path d="M1297.08143872 447.475591l114.764224-114.778996a21.774033 21.774033 0 0 0-4.431622-34.478015l-203.485285-117.600461-0.531795-0.07386a67.006117 67.006117 0 0 1-7.06105 8.036006l1.772649 0.295442 204.209117 118.073168a11.684709 11.684709 0 0 1 2.437392 18.61281l-115.222158 115.222158-40.815234-30.858857-219.010733-128.221581a42.277669 42.277669 0 0 1-3.087363 5.332717l-0.265897 0.664744c-0.42839 1.004501-0.901096 1.964686-1.477207 2.954414l218.213041 127.704558 37.860819 28.643047-335.857819 202.480785-331.337565-201.993306 212.717831-129.181766a29.425967 29.425967 0 0 1-2.658973-5.495211l-0.768148-1.890825-0.088632-0.221581-0.103405-0.206809c-0.221581-0.457934-0.443162-0.915868-0.679515-1.359031L604.89170972 441.123601 489.35933872 325.576457a11.684709 11.684709 0 0 1-3.2794-9.926832 11.492672 11.492672 0 0 1 5.702019-8.70075L810.97688072 122.490017a11.12337 11.12337 0 0 1 5.702019-1.477207 12.127871 12.127871 0 0 1 8.538257 3.574841l113.744951 113.744951-8.582573 5.214542a6.440623 6.440623 0 0 1 0.768148 0.723831l0.960184 0.738604a32.173572 32.173572 0 0 1 5.908829 5.702019l8.287132-5.022504 0.797692 0.753376 0.78292-0.812464 50.742065 29.691864c1.654472-2.06809 3.471437-3.958915 5.27363-5.908829a11.817657 11.817657 0 0 0 1.477207-1.816965l-50.047778-29.30779 76.711367-76.667051c-0.915868-1.196538-1.757877-2.274899-2.880554-3.574841l-0.635199-0.70906c-1.21131-0.753376-2.393076-1.477207-3.530525-2.378303h-0.517022L947.11629172 232.276053 832.27820772 117.437969a21.877438 21.877438 0 0 0-26.368148-3.63393L486.71513772 298.233353a21.138834 21.138834 0 0 0-10.69498 16.131102 21.921754 21.921754 0 0 0 6.100866 18.346913l114.764223 114.778996-114.764223 114.95626a21.38996 21.38996 0 0 0-6.100866 18.140104 21.419504 21.419504 0 0 0 10.69498 16.249279l119.210617 68.95603v150.468321a22.24674 22.24674 0 0 0 10.960877 18.937795l319.076746 184.296365a19.838892 19.838892 0 0 0 11.152914 3.102135 20.311598 20.311598 0 0 0 10.887017-2.954414l319.194922-184.503174a22.158107 22.158107 0 0 0 10.901789-18.908251V665.777265l119.358338-68.985574a22.424005 22.424005 0 0 0 10.739296-16.249279 21.803578 21.803578 0 0 0-6.351991-18.140104zM491.78195772 588.090941a11.714253 11.714253 0 0 1-5.702019-8.863243 11.522216 11.522216 0 0 1 3.220311-9.705251l115.59146-115.665321 332.120485 202.510329-111.795038 112.149568a11.04951 11.04951 0 0 1-7.48944 2.954414l-2.156722 0.265897-0.132949 0.088633a11.12337 11.12337 0 0 1-4.667974-1.477208L613.54814372 658.450317z m786.213965 228.154645a11.994922 11.994922 0 0 1-5.908829 10.222273L952.83308372 1011.015349a11.655164 11.655164 0 0 1-11.610849-0.118176L622.01254072 826.497403a11.994922 11.994922 0 0 1-5.908828-10.237045v-144.766301l189.68817 107.629313a21.522908 21.522908 0 0 0 10.946105 2.954414l2.171495-0.251125 0.339758-0.251125a20.991114 20.991114 0 0 0 12.98465-5.820196l112.917715-113.257473 116.699366 113.301789a20.6809 20.6809 0 0 0 13.058511 5.731564l2.378303 0.561338a21.404732 21.404732 0 0 0 10.887017-2.954414l189.82112-107.629313z m130.245355-236.973572a12.467628 12.467628 0 0 1-5.834969 8.863243l-121.840046 70.374149-197.428736 111.942758a10.960877 10.960877 0 0 1-4.786151 1.477207l-1.787421-0.369302a11.536988 11.536988 0 0 1-7.666705-2.954414l-115.606232-112.267744 335.857819-202.480785 115.621004 115.783497a11.62562 11.62562 0 0 1 3.471437 9.631391z" fill="#0da7db" p-id="6794"></path><path d="M943.89597972 1024l-2.038546-362.152106h10.104097l2.038546 362.152106z m0 0" fill="#0da7db" p-id="6795"></path></svg>