<svg t="1600325396056" class="icon" viewBox="0 0 1024 1024" version="1.1" xmlns="http://www.w3.org/2000/svg" p-id="3339" width="20" height="20"><path d="M348.16 987.136H116.736c-30.72 0-59.392-10.24-81.92-30.72S2.048 905.216 0 876.544V110.592c0-30.72 14.336-59.392 34.816-79.872S86.016 0 116.736 0h567.296c61.44 0 114.688 49.152 114.688 110.592v337.92c-4.096 18.432-20.48 30.72-38.912 30.72s-34.816-12.288-38.912-30.72V110.592c-2.048-20.48-18.432-36.864-38.912-36.864H116.736c-20.48 0-38.912 16.384-38.912 36.864v765.952c2.048 20.48 18.432 36.864 38.912 36.864H348.16c20.48 0 36.864 16.384 36.864 36.864s-16.384 36.864-36.864 36.864z" p-id="3340"></path><path d="M585.728 284.672h-368.64c-20.48 0-36.864-16.384-36.864-36.864s16.384-36.864 36.864-36.864h368.64c20.48 0 36.864 16.384 36.864 36.864s-16.384 36.864-36.864 36.864z m0 188.416h-368.64c-20.48 0-36.864-16.384-36.864-36.864s16.384-36.864 36.864-36.864h368.64c20.48 0 36.864 16.384 36.864 36.864s-16.384 36.864-36.864 36.864z m344.064 272.384c0-20.48-14.336-32.768-36.864-34.816-14.336 0-28.672-6.144-36.864-18.432-8.192-12.288-12.288-26.624-10.24-40.96 8.192-38.912 6.144-45.056-30.72-65.536l-24.576-12.288c-20.48-18.432-53.248-14.336-71.68 6.144-26.624 22.528-38.912 20.48-65.536 0-18.432-20.48-49.152-24.576-71.68-6.144l-38.912 20.48c-18.432 8.192-26.624 28.672-20.48 47.104 12.288 38.912-6.144 65.536-49.152 69.632-18.432 2.048-30.72 12.288-30.72 26.624-2.048 30.72-2.048 63.488 0 94.208 0 20.48 14.336 30.72 36.864 32.768 14.336 0 28.672 6.144 36.864 16.384 10.24 10.24 14.336 26.624 10.24 40.96-8.192 40.96-8.192 47.104 32.768 67.584 8.192 4.096 16.384 10.24 24.576 14.336 20.48 14.336 47.104 10.24 63.488-8.192 30.72-26.624 38.912-26.624 71.68 0 12.288 8.192 26.624 16.384 38.912 22.528 28.672-18.432 57.344-34.816 83.968-53.248 6.144-10.24 8.192-20.48 4.096-30.72-14.336-36.864 8.192-67.584 51.2-71.68 16.384 0 28.672-10.24 28.672-26.624 6.144-26.624 6.144-59.392 4.096-90.112z m-243.712 139.264c-38.912 0-73.728-22.528-88.064-59.392-14.336-36.864-6.144-77.824 20.48-104.448s69.632-34.816 104.448-20.48 59.392 49.152 59.392 88.064c0 24.576-10.24 49.152-28.672 67.584s-43.008 28.672-67.584 28.672zM176.128 585.728h260.096v75.776H176.128z" p-id="3341"></path></svg>