<svg t="1600305125401" class="icon" viewBox="0 0 1024 1024" version="1.1" xmlns="http://www.w3.org/2000/svg" p-id="1244" width="20" height="20"><path d="M747.52 453.973333c88.746667-126.293333 61.44-303.786667-64.853333-392.533333C556.373333-30.72 378.88 0 286.72 126.293333c-88.746667 126.293333-61.44 303.786667 64.853333 392.533334C163.84 590.506667 34.133333 771.413333 34.133333 976.213333c0 23.893333 17.066667 40.96 40.96 40.96s40.96-17.066667 40.96-40.96c0-221.866667 180.906667-402.773333 402.773334-402.773333 92.16 0 177.493333-44.373333 228.693333-119.466667zM317.44 290.133333c0-112.64 88.746667-201.386667 201.386667-201.386666s201.386667 88.746667 201.386666 201.386666-88.746667 201.386667-201.386666 201.386667-201.386667-88.746667-201.386667-201.386667zM955.733333 744.106667c-20.48-20.48-51.2-34.133333-81.92-34.133334l-191.146666-3.413333h-23.893334c-13.653333 0-23.893333 6.826667-34.133333 17.066667L563.2 819.2c-3.413333 6.826667-3.413333 17.066667 0 23.893333 3.413333 6.826667 13.653333 13.653333 20.48 13.653334h23.893333c13.653333 0 23.893333-6.826667 34.133334-17.066667l37.546666-61.44v3.413333l191.146667 3.413334c10.24 0 20.48 3.413333 27.306667 10.24 6.826667 6.826667 10.24 17.066667 10.24 27.306666v75.093334c0 10.24-3.413333 20.48-10.24 27.306666-6.826667 6.826667-17.066667 10.24-27.306667 10.24h-92.16c-13.653333 0-27.306667 6.826667-34.133333 20.48l-10.24 17.066667c-3.413333 6.826667-3.413333 17.066667 0 27.306667 3.413333 6.826667 13.653333 13.653333 23.893333 13.653333h116.053333c30.72 0 61.44-10.24 81.92-34.133333 20.48-20.48 34.133333-51.2 34.133334-81.92v-75.093334c0-27.306667-10.24-58.026667-34.133334-78.506666z" p-id="1245"></path><path d="M744.106667 873.813333c-3.413333-6.826667-13.653333-13.653333-20.48-13.653333h-23.893334c-13.653333 0-23.893333 6.826667-34.133333 17.066667l-37.546667 58.026666h-215.04c-10.24 0-20.48-3.413333-27.306666-10.24-6.826667-6.826667-10.24-17.066667-10.24-27.306666v-75.093334c0-10.24 3.413333-20.48 10.24-27.306666 6.826667-6.826667 17.066667-10.24 27.306666-10.24h116.053334c13.653333 0 27.306667-6.826667 34.133333-20.48l10.24-20.48c3.413333-6.826667 3.413333-17.066667 0-23.893334-3.413333-6.826667-13.653333-13.653333-20.48-13.653333h-139.946667c-30.72 0-61.44 10.24-81.92 34.133333-20.48 20.48-34.133333 51.2-34.133333 81.92v75.093334c0 30.72 10.24 61.44 34.133333 81.92 20.48 20.48 51.2 34.133333 81.92 34.133333H648.533333c13.653333 0 23.893333-6.826667 34.133334-17.066667l61.44-95.573333c3.413333-10.24 3.413333-20.48 0-27.306667z" p-id="1246"></path></svg>